# xmcd
#
# Track frame offsets:
#	150
#	11852
#	34566
#	46173
#	58515
#	69527
#	81246
#	94531
#	106982
#	117471
#	135628
#	154634
#
# Disc length: 2554
#
# Revision: 1
# Processed by: cddbd v1.5.1PL0 Copyright (c) Steve Scherf et al.
# Submitted via: FreeRIP 2.70 
# Normalized: r0:TDELIM( - )
#
DISCID=9509f80c
DTITLE=Various Artist - Blues Guitar Heroes (Fuel 2000)
DYEAR=2003
DGENRE=Blues
TTITLE0=Otis Rush - All Your Love (I Miss Loving)
TTITLE1=Albert King - Guitar Man
TTITLE2=Elmore James - Knockin' At Your Door
TTITLE3=Earl Hooker - Blue Guitar
TTITLE4=Ike Turner - Matchbox
TTITLE5=Robert Lockwood - Aw Aw Baby
TTITLE6=Buddy Guy - This Is The End
TTITLE7=Canned Heat - Let's Work Together
TTITLE8=Albert Collins - Collins Shuffle
TTITLE9=Buster Benton - Gone Fishin'
TTITLE10=Mississippi Fred McDowell - Someday
TTITLE11=Corey Stevens - Something I Can't Do
EXTD=
EXTT0=
EXTT1=
EXTT2=
EXTT3=
EXTT4=
EXTT5=
EXTT6=
EXTT7=
EXTT8=
EXTT9=
EXTT10=
EXTT11=
PLAYORDER=
